<?xml version="1.0" standalone="no"?>
<!DOCTYPE svg PUBLIC "-//W3C//DTD SVG 20010904//EN"
 "http://www.w3.org/TR/2001/REC-SVG-20010904/DTD/svg10.dtd">
<svg version="1.0" xmlns="http://www.w3.org/2000/svg"
 viewBox="0 0 2600.000000 2600.000000"
 preserveAspectRatio="xMidYMid meet">
<metadata>
Created by potrace 1.15, written by Peter Selinger 2001-2017
</metadata>
<g transform="translate(0.000000,2600.000000) scale(0.100000,-0.100000)"
fill="#000000" stroke="none">
<path d="M12040 19820 l0 -1090 255 0 255 0 0 1090 0 1090 -255 0 -255 0 0
-1090z"/>
<path d="M10024 20394 c-115 -69 -213 -129 -218 -134 -9 -9 1081 -1849 1100
-1857 13 -5 434 243 434 256 0 7 -1094 1848 -1103 1858 -2 1 -97 -54 -213
-123z"/>
<path d="M14356 20488 c-138 -218 -1126 -1811 -1126 -1816 1 -4 96 -66 213
-139 162 -101 215 -129 223 -120 18 19 1134 1814 1134 1825 0 6 -311 205 -417
266 -7 4 -18 -3 -27 -16z"/>
<path d="M7530 17963 c-958 -103 -1748 -781 -1979 -1698 l-28 -110 -89 -48
c-197 -107 -344 -217 -489 -368 -179 -187 -296 -371 -390 -613 -219 -567 -146
-1195 199 -1705 l73 -109 -111 -6 c-442 -27 -873 -158 -1236 -376 -701 -422
-1162 -1112 -1280 -1920 -62 -424 -16 -871 132 -1285 89 -249 269 -567 445
-785 264 -329 660 -622 1061 -785 50 -21 92 -41 92 -44 0 -3 -110 -436 -245
-961 -134 -525 -243 -955 -242 -956 4 -4 7084 -1808 7108 -1812 25 -4 27 0 46
75 305 1204 1698 6660 1702 6665 3 4 393 -1512 866 -3368 565 -2215 864 -3374
872 -3374 14 0 7116 1810 7121 1815 2 2 -468 1856 -483 1906 -4 11 16 23 77
48 224 90 488 245 678 397 116 92 320 298 413 416 261 329 446 722 531 1127
77 363 73 767 -9 1131 -208 921 -881 1660 -1780 1954 -214 70 -411 109 -647
127 -84 7 -154 13 -155 14 -2 1 31 52 72 114 210 315 315 658 315 1031 0 305
-60 559 -196 832 -174 352 -464 642 -822 822 -57 29 -73 42 -78 64 -22 100
-72 264 -110 362 -309 782 -1034 1329 -1882 1421 -141 15 -450 7 -582 -16
-558 -94 -1058 -384 -1399 -810 -35 -44 -67 -81 -71 -83 -5 -2 -44 15 -87 36
-164 82 -336 138 -533 174 -162 29 -438 29 -600 0 -377 -68 -698 -229 -968
-486 -252 -242 -419 -515 -516 -848 -13 -46 -26 -76 -29 -68 -3 8 -19 60 -36
115 -142 464 -473 865 -901 1093 -309 165 -679 242 -1010 212 -242 -22 -474
-85 -675 -184 l-104 -51 -53 70 c-81 107 -290 312 -410 401 -409 306 -869 457
-1371 452 -95 0 -188 -3 -207 -5z m477 -728 c389 -67 741 -282 971 -594 89
-119 120 -175 253 -451 64 -135 121 -245 127 -245 5 0 96 80 202 178 232 214
294 261 425 326 278 138 599 158 885 55 382 -137 650 -445 747 -857 14 -59 17
-118 16 -329 -2 -198 1 -258 10 -258 58 0 476 -64 527 -81 249 -82 485 -224
661 -399 521 -518 607 -1329 206 -1938 -235 -356 -569 -579 -1007 -673 -90
-20 -135 -23 -320 -23 -199 -1 -223 1 -327 26 -209 50 -429 160 -609 304 -116
93 -237 221 -394 417 -69 86 -128 156 -133 156 -4 1 -80 -97 -170 -216 -176
-236 -254 -325 -362 -413 -258 -209 -531 -321 -858 -352 -362 -34 -741 71
-1044 288 -117 84 -291 263 -369 380 -74 111 -152 269 -192 392 -17 51 -54
211 -83 357 l-52 264 -46 -19 c-25 -10 -113 -45 -196 -78 -321 -128 -410 -147
-635 -139 -114 4 -165 11 -240 32 -401 111 -714 432 -821 843 -41 155 -40 398
2 556 86 323 305 589 604 735 55 27 163 69 240 92 77 23 145 47 151 53 6 6 17
72 23 146 18 202 38 313 76 428 216 645 844 1081 1522 1056 67 -2 161 -11 210
-19z m8984 14 c284 -28 540 -123 766 -282 129 -91 294 -260 381 -391 161 -241
226 -422 257 -721 8 -82 18 -169 21 -192 l5 -42 158 -51 c88 -27 200 -70 250
-95 423 -212 675 -672 622 -1134 -53 -450 -359 -832 -783 -977 -212 -72 -479
-72 -703 0 -44 14 -169 61 -278 105 -131 53 -199 76 -202 68 -2 -7 -27 -127
-54 -267 -60 -302 -81 -372 -165 -545 -81 -165 -165 -283 -291 -410 -410 -410
-1012 -556 -1569 -380 -121 38 -349 155 -449 231 -140 105 -245 219 -424 457
-91 122 -169 223 -173 225 -4 2 -77 -82 -161 -185 -214 -262 -338 -380 -521
-496 -66 -42 -158 -90 -158 -82 0 3 20 31 44 62 224 296 374 674 427 1073 18
138 16 421 -5 565 -91 637 -437 1205 -953 1565 l-63 44 0 79 c0 101 32 256 74
362 251 633 968 913 1571 615 130 -65 215 -129 432 -331 98 -91 184 -169 191
-173 9 -5 48 67 141 257 172 354 237 453 407 619 131 128 245 207 414 286 260
123 519 169 791 141z m-11061 -4623 c191 -38 458 -45 624 -17 l49 8 15 -41
c35 -90 154 -316 217 -411 369 -554 943 -912 1601 -1000 140 -19 419 -22 549
-5 457 56 886 247 1224 542 30 27 58 48 61 48 4 0 36 -23 71 -52 312 -251 721
-419 1143 -467 49 -6 91 -13 93 -15 5 -4 -1502 -5929 -1515 -5956 -6 -14 -439
94 -2875 716 -1577 402 -2870 733 -2872 735 -1 2 337 1339 753 2971 615 2410
760 2967 772 2963 8 -2 49 -11 90 -19z m12850 19 c0 -2 340 -1337 755 -2966
416 -1629 753 -2964 750 -2967 -3 -3 -1237 -320 -2743 -703 -1505 -384 -2794
-713 -2864 -731 -70 -18 -129 -30 -132 -27 -8 7 -1526 5962 -1522 5966 2 2 43
8 92 13 399 44 787 198 1111 442 57 43 106 78 109 78 3 0 26 -20 52 -44 26
-24 89 -75 141 -114 674 -504 1586 -587 2346 -213 227 112 387 225 573 405
228 221 409 485 522 759 25 60 36 77 49 73 9 -3 57 -10 106 -16 177 -20 376
-9 555 29 107 23 100 22 100 16z m-13717 -65 c6 -6 -946 -3747 -956 -3756 -9
-10 -221 99 -323 165 -125 81 -223 162 -340 282 -359 371 -554 849 -554 1364
0 302 64 580 195 850 165 342 412 615 737 817 224 139 511 240 788 277 67 9
444 10 453 1z m14951 -5 c511 -67 992 -347 1302 -757 679 -900 465 -2182 -469
-2809 -110 -73 -342 -197 -352 -187 -2 2 -219 848 -483 1880 -454 1782 -477
1877 -458 1881 55 11 356 6 460 -8z"/>
<path d="M6335 10928 c-17 -49 -755 -2964 -752 -2972 3 -8 687 -188 687 -180
0 2 171 675 380 1495 210 820 380 1492 378 1494 -2 1 -149 39 -328 84 -179 45
-333 84 -343 87 -9 3 -19 -1 -22 -8z"/>
<path d="M7990 10463 c-6 -27 -175 -689 -375 -1473 -200 -784 -365 -1434 -367
-1445 -3 -18 26 -27 340 -108 189 -49 345 -87 347 -85 1 2 173 674 382 1493
329 1290 378 1491 364 1497 -23 10 -647 168 -664 168 -9 0 -19 -18 -27 -47z"/>
<path d="M9661 10053 c-96 -360 -750 -2947 -747 -2951 3 -2 159 -44 346 -92
l340 -86 10 35 c35 133 750 2944 750 2950 0 4 -145 44 -322 89 -178 45 -333
85 -345 88 -19 5 -23 0 -32 -33z"/>
<path d="M17910 10852 c-306 -80 -335 -89 -332 -107 8 -44 754 -2960 759
-2965 5 -5 658 158 679 169 13 7 -746 2991 -761 2990 -5 0 -161 -40 -345 -87z"/>
<path d="M16257 10430 c-185 -48 -340 -89 -343 -93 -6 -6 744 -2966 755 -2979
5 -6 677 157 689 167 3 2 -757 2988 -761 2991 -1 0 -154 -38 -340 -86z"/>
<path d="M14580 10003 c-184 -48 -336 -87 -337 -88 -4 -3 755 -2977 762 -2983
11 -11 680 164 682 179 4 23 -752 2972 -762 2975 -6 1 -161 -36 -345 -83z"/>
</g>
</svg>
